<?xml version="1.0" encoding="UTF-8"?>
<svg id="Layer_1" data-name="Layer 1" xmlns="http://www.w3.org/2000/svg" viewBox="0 0 1075.53 1067.48">
  <defs>
    <style>
      .cls-1 {
        fill: #f0f;
      }

      .cls-2 {
        fill: #fff;
      }

      .cls-3 {
        fill: #29abe2;
      }
    </style>
  </defs>
  <path class="cls-1" d="M221.71,121.19h-100.43l14.57,34.15,285.52,669.44,24.5-57.3,25.2-58.91L221.71,121.19ZM897.15,121.19l-338.97,792.6-39.75-93.64-49.53,116.11,22.92,53.74,18.65,43.72h91.64L991.31,121.19h-94.16Z"/>
  <path class="cls-3" d="M171.5,121.19l-18.56-43.73h-50.16l18.56,43.73h-.07l14.57,34.15,284.84,671.01.67-1.57,24.5-57.3L171.5,121.19ZM835.18,77.47l-316.75,742.69-49.53,116.11-4.27,10.02h-41.57l18.65,43.73h91.64L903.9,121.19c6.22-14.58,12.43-29.15,18.65-43.73h-87.37Z"/>
  <path class="cls-2" d="M121.34,121.19h-.07l14.57,34.15-14.5-34.15ZM853.78,33.75c-6.22,14.57-12.43,29.14-18.65,43.72h.05l18.64-43.69v-.02s-.04,0-.04,0Z"/>
  <path class="cls-1" d="M922.54,77.47c-6.22,14.57-12.43,29.15-18.65,43.72h87.41c-22.92-14.57-45.85-29.15-68.77-43.72Z"/>
  <path class="cls-3" d="M922.54,77.47h-87.41c6.22-14.58,12.43-29.15,18.65-43.72.02,0,.02.02.04.02,22.91,14.56,45.82,29.13,68.73,43.69Z"/>
  <path class="cls-1" d="M510.47,1033.73c-6.22-14.57-12.43-29.15-18.65-43.72h-50.12c22.92,14.57,45.85,29.15,68.77,43.72Z"/>
  <path class="cls-3" d="M441.7,990.01c-22.91-14.58-45.82-29.15-68.73-43.73h50.07c6.22,14.58,12.44,29.15,18.65,43.73Z"/>
  <path class="cls-1" d="M221.71,121.19h-50.21c-6.19-14.57-12.37-29.15-18.56-43.72,22.92,14.57,45.85,29.15,68.77,43.72Z"/>
  <path class="cls-3" d="M152.94,77.47h-50.16c-6.19-14.58-12.37-29.15-18.56-43.72,22.91,14.57,45.81,29.14,68.72,43.72Z"/>
</svg>